<svg width="53" height="21" viewBox="0 0 53 21" fill="none" xmlns="http://www.w3.org/2000/svg">
<path fill-rule="evenodd" clip-rule="evenodd" d="M0 0.691467H53V20.6915H0V0.691467Z" fill="white"/>
<path fill-rule="evenodd" clip-rule="evenodd" d="M51.9999 16.0739C51.9999 17.1712 51.1946 17.6827 49.7532 17.6827H46.9987V16.5853H49.7532C50.0076 16.5853 50.2196 16.549 50.3048 16.4761C50.3893 16.4026 50.4741 16.2929 50.4741 16.1468C50.4741 16.0002 50.3896 15.8541 50.3048 15.7812C50.2196 15.7077 50.0504 15.6714 49.7959 15.6714C49.7118 15.669 49.6263 15.6671 49.54 15.6652C48.2774 15.637 46.8291 15.6047 46.8291 14.0986C46.8291 13.3669 47.38 12.5622 48.8634 12.5622H51.7031V13.6596H49.0751C48.8213 13.6596 48.6514 13.6596 48.5242 13.7325C48.397 13.8422 48.3125 13.952 48.3125 14.1349C48.3125 14.3179 48.4397 14.4277 48.609 14.5011L48.6127 14.5019C48.7814 14.5379 48.95 14.574 49.1605 14.574H49.9231C50.7285 14.574 51.2373 14.7201 51.5765 14.9765C51.8303 15.2323 51.9999 15.5619 51.9999 16.0739ZM46.0234 14.9765C45.6842 14.7201 45.1754 14.574 44.3701 14.574H43.6075C43.3988 14.574 43.2307 14.5382 43.0638 14.5026L43.0565 14.5011C42.8866 14.4277 42.76 14.3179 42.76 14.1349C42.76 13.952 42.8021 13.8422 42.9717 13.7325C43.0989 13.6596 43.2682 13.6596 43.5226 13.6596H46.1506V12.5622H43.3109C41.7848 12.5622 41.276 13.3669 41.276 14.0986C41.276 15.6046 42.7247 15.637 43.9879 15.6652C44.0741 15.6671 44.1595 15.669 44.2435 15.6714C44.4973 15.6714 44.6672 15.7077 44.7517 15.7812C44.8362 15.8541 44.9216 16.0002 44.9216 16.1468C44.9216 16.2929 44.8365 16.4026 44.7517 16.4761C44.6245 16.549 44.4552 16.5853 44.2008 16.5853H41.4456V17.6827H44.2008C45.6415 17.6827 46.4471 17.171 46.4471 16.0739C46.4471 15.5619 46.2778 15.2323 46.0234 14.9765ZM40.5979 16.6224H37.25V15.5982H40.5134V14.5745H37.25V13.6232H40.5979V12.5627H35.851V17.6829H40.5979V16.6224ZM34.3249 12.8188C33.8585 12.5993 33.3075 12.5624 32.587 12.5624H29.3236V17.6827H30.7644V15.8175H32.2905C32.7987 15.8175 33.0958 15.8543 33.3079 16.037C33.5623 16.2929 33.5623 16.7319 33.5623 17.0612V17.6827H34.9606V16.6951C34.9606 16.2197 34.9185 16.0002 34.7489 15.7443C34.6217 15.5977 34.3679 15.415 34.0287 15.3052C34.4097 15.196 35.046 14.7569 35.046 13.952C35.0457 13.3671 34.7913 13.0378 34.3249 12.8188ZM26.2717 12.5624H21.7362L19.9136 14.245L18.1757 12.5624H12.4536V17.6827H18.0912L19.9139 16.0002L21.6517 17.6827H24.4069V15.9641H26.1872C27.4162 15.9641 28.6458 15.6714 28.6458 14.245C28.6455 12.8552 27.3738 12.5624 26.2717 12.5624ZM33.1803 14.684C32.9686 14.757 32.7566 14.7569 32.5022 14.7569L30.7644 14.7938V13.623H32.5022C32.7566 13.623 33.011 13.623 33.1803 13.7327C33.3503 13.8062 33.4768 13.9523 33.4768 14.1718C33.4768 14.3913 33.3503 14.5743 33.1803 14.684ZM26.2717 14.9399H24.4066V13.623H26.2717C26.7805 13.623 27.1194 13.8062 27.1194 14.245C27.1194 14.684 26.7802 14.9399 26.2717 14.9399ZM20.8037 15.1226L23.0076 13.1113V17.2442L20.8037 15.1226ZM17.3704 16.6224H13.8523V15.5982H16.9888V14.5745H13.8523V13.6232H17.4128L18.981 15.1228L17.3704 16.6224ZM48.0578 8.86837H46.0234L43.353 5.02793V8.86837H40.4713L39.9197 7.7344H36.9529L36.4019 8.86837H34.7486C34.0705 8.86837 33.1803 8.72201 32.6721 8.28295C32.2057 7.84416 31.9513 7.25901 31.9513 6.34457C31.9513 5.57648 32.0785 4.88157 32.7139 4.33301C33.1376 3.93054 33.9009 3.74787 34.8755 3.74787H36.2317V4.84525H34.8755C34.3673 4.84525 34.0702 4.91843 33.7737 5.13796C33.5192 5.35749 33.392 5.75969 33.392 6.30825C33.392 6.85681 33.5192 7.25928 33.7737 7.5154C33.9854 7.69807 34.3673 7.77125 34.7483 7.77125H35.3843L37.4187 3.74813H39.5381L41.9117 8.57592V3.74787H44.116L46.6167 7.2956V3.74787H48.0575L48.0578 8.86837ZM31.2308 3.74787H29.7901V8.86837H31.2308V3.74787ZM28.2212 3.9674C27.7548 3.74787 27.2466 3.74787 26.5261 3.74787H23.2621V8.86837H24.6607V7.00289H26.1865C26.6954 7.00289 27.0346 7.03948 27.2463 7.22242C27.47 7.44769 27.464 7.81448 27.4592 8.09856C27.4586 8.13746 27.458 8.17482 27.458 8.21004V8.86837H28.8987V7.84416C28.8987 7.40537 28.8566 7.18583 28.6449 6.92972C28.5177 6.78336 28.2633 6.60042 27.9668 6.49092C28.3478 6.34457 28.9841 5.94237 28.9841 5.13769C28.9844 4.55254 28.6873 4.22325 28.2212 3.9674ZM22.2447 7.80784H18.9386V6.78363H22.2023V5.7231H18.9386V4.80866H22.2447V3.74813H17.4976V8.86863H22.2447V7.80784ZM39.4115 6.63728L38.4363 4.62572L37.4617 6.63728H39.4115ZM27.1194 5.83287C26.9077 5.94263 26.6957 5.94263 26.3989 5.94263H24.6607V4.80893H26.3985C26.653 4.80893 26.9492 4.80893 27.1191 4.8821C27.2884 4.99187 27.3735 5.13822 27.3735 5.35748C27.3735 5.57675 27.2887 5.75942 27.1194 5.83287Z" fill="#9E9E9E"/>
<path fill-rule="evenodd" clip-rule="evenodd" d="M16.4379 3.74787H14.1067L12.3688 7.22242L10.5038 3.74787H8.21501V8.57566L5.79904 3.74787H3.67988L1.1367 8.86837H2.66255L3.21346 7.7344H6.18035L6.73126 8.86837H9.61365V4.84525L11.6904 8.86837H12.9194L14.9965 4.84525V8.86837H16.4375L16.4379 3.74787ZM4.6969 4.62572L3.72197 6.63728H5.67183L4.6969 4.62572Z" fill="#9E9E9E"/>
<path d="M51.5765 1.69147L1.09399 1.69147V6.12531L2.83185 2.72393H6.51925L7.02807 3.56519V2.72393H11.3515L12.3264 4.55254L13.259 2.72393H27.0346C27.67 2.72393 28.2209 2.83369 28.6452 3.12613V2.72393H32.4174V3.12613C33.0528 2.83343 33.8582 2.72393 34.791 2.72393H40.2586L40.7675 3.56519V2.72393H44.7941L45.3877 3.56519V2.72393H49.3292V9.89257H45.3453L44.5827 8.79545V9.89257H39.6232L39.0723 8.72228H37.8427L37.2918 9.89257H34.7065C33.6892 9.89257 32.9259 9.67304 32.4177 9.45378V9.89257H26.2717V8.24663C26.2717 8.0271 26.2292 7.99051 26.0596 7.99051H25.8479V9.8923H13.9795V8.97786L13.5558 9.8923H11.055L10.6313 9.01445V9.8923H5.84144L5.33293 8.72201H4.10359L3.55267 9.8923H1.09399V19.6915H51.5765L51.661 18.3776C51.1101 18.5971 50.3469 18.7069 49.5839 18.7069H45.8962V18.2678C45.4725 18.5608 44.7093 18.7069 43.9891 18.7069H32.375V17.0612C32.375 16.8417 32.3329 16.8417 32.1206 16.8417H31.9089V18.7069H28.094V16.7685C27.4586 17.0244 26.7378 17.0244 26.102 17.0244H25.678V18.7069H21.0157L19.9139 17.6095L18.6848 18.7069H11.1819V11.5385H18.8114L19.9136 12.6354L21.1005 11.5385H26.2292C26.8223 11.5385 27.7975 11.6114 28.2212 11.977V11.5385H32.7987C33.2651 11.5385 34.1556 11.6114 34.7486 11.977V11.5385H41.6576V11.9773C42.0392 11.6846 42.76 11.5388 43.3954 11.5388H47.2525V11.9773C47.6768 11.7215 48.2698 11.5388 49.033 11.5388H51.661L51.5765 1.69147Z" fill="#9E9E9E"/>
</svg>
