<svg width="43" height="28" viewBox="0 0 43 28" fill="none" xmlns="http://www.w3.org/2000/svg">
<path d="M29.3111 27.617C36.8612 27.6541 43.0525 21.4622 42.9996 13.9285C43.0519 6.18882 36.8612 -0.00242913 29.3111 7.14976e-07H14.1823C6.54161 -0.00182167 0.350368 6.18882 0.253174 13.9285C0.350368 21.4622 6.54161 27.6535 14.1817 27.617H29.3111V27.617Z" fill="#9E9E9E"/>
<path d="M1.21411 13.9285C1.28944 6.7076 7.05971 0.936715 14.1822 0.961014C21.2968 0.936715 27.0677 6.7076 27.1497 13.9291C27.0677 20.9447 21.2968 26.7156 14.1822 26.6566C7.05971 26.7156 1.28944 20.9441 1.21411 13.9285V13.9285Z" fill="white"/>
<path d="M11.2997 6.24414C8.31524 7.59088 6.07613 10.4702 6.0166 13.9285C6.07613 17.2568 8.20832 20.1884 11.2997 21.373V6.24414ZM17.0633 21.3736C20.1474 20.189 22.2789 17.2568 22.3464 13.9291C22.2789 10.3961 20.1468 7.46392 17.0633 6.24475V21.3736Z" fill="#9E9E9E"/>
</svg>
