<svg width="54" height="26" viewBox="0 0 54 26" fill="none" xmlns="http://www.w3.org/2000/svg">
<path d="M11.1302 7.96452C11.6497 7.788 12.204 7.69386 12.7789 7.69386C15.296 7.69386 17.3973 9.51553 17.8776 11.9374L21.4453 11.196C20.6279 7.08193 17.0579 3.98462 12.7789 3.98462C11.7975 3.98462 10.8577 4.14702 9.97559 4.44827L11.1302 7.96452Z" fill="#EEEEEE"/>
<path d="M6.92048 19.7465L9.33358 16.9669C8.2575 15.9949 7.5786 14.5757 7.5786 12.9941C7.5786 11.4148 8.2575 9.99563 9.33358 9.02595L6.92048 6.24402C5.09161 7.89623 3.93701 10.3087 3.93701 12.9941C3.93701 15.6819 5.09161 18.0943 6.92048 19.7465" fill="#BBBBBB"/>
<path d="M17.8776 14.058C17.395 16.4775 15.296 18.2968 12.7812 18.2968C12.204 18.2968 11.6474 18.2026 11.1302 18.0238L9.97559 21.5447C10.8577 21.8436 11.7998 22.006 12.7812 22.006C17.0556 22.006 20.6233 18.9134 21.4453 14.8041L17.8776 14.058Z" fill="#9E9E9E"/>
<path d="M24.565 17.0823C24.4472 16.8893 24.2902 16.5809 24.1932 16.3526C23.6275 15.0158 23.6021 13.6319 24.0778 12.3045C24.6019 10.8476 25.6041 9.73438 26.8996 9.16481C28.5276 8.45168 30.3264 8.59054 31.8874 9.53433C32.8781 10.1133 33.5801 11.0077 34.1135 12.2739C34.1805 12.4363 34.2405 12.6081 34.3005 12.7564L24.565 17.0823ZM27.8163 11.3136C26.6594 11.8197 26.0637 12.9258 26.1884 14.2203L31.0838 12.0715C30.241 11.0642 29.1464 10.7299 27.8163 11.3136V11.3136ZM31.6935 15.9878C31.6912 15.9878 31.6912 15.9902 31.6912 15.9902L31.5896 15.9196C31.2963 16.4021 30.8414 16.7951 30.2664 17.0493C29.1718 17.5341 28.1581 17.4094 27.4284 16.7575L27.3614 16.861C27.3614 16.861 27.3614 16.8587 27.3591 16.8587L26.1168 18.7533C26.4262 18.9722 26.7564 19.1558 27.1028 19.304C28.4745 19.8854 29.8784 19.8571 31.2616 19.2452C32.2615 18.8027 33.0466 18.1296 33.5824 17.2753L31.6935 15.9878ZM37.702 6.37817V16.9081L39.3092 17.5718L38.397 19.7418L36.6236 18.9887C36.2264 18.8121 35.9539 18.5438 35.7507 18.2402C35.5544 17.9319 35.4089 17.5059 35.4089 16.9363V6.37817H37.702ZM41.8631 14.2274C41.8631 13.3307 42.2534 12.5257 42.8676 11.9797L41.2189 10.1062C40.1012 11.1136 39.3969 12.5846 39.3969 14.2227C39.3946 15.8631 40.0989 17.3364 41.2142 18.3438L42.8607 16.4703C42.2488 15.9219 41.8631 15.1217 41.8631 14.2274V14.2274ZM44.7912 17.2141C44.4679 17.2141 44.1538 17.1576 43.8629 17.0587L43.0755 19.4429C43.6135 19.6265 44.1885 19.7277 44.7889 19.7277C47.3983 19.73 49.5758 17.8425 50.0815 15.3359L47.6615 14.8322C47.3867 16.195 46.2067 17.2164 44.7912 17.2141V17.2141ZM44.7981 8.72705C44.2 8.72705 43.625 8.8259 43.087 9.00712L43.8675 11.3937C44.1608 11.2948 44.4725 11.2407 44.7958 11.2407C46.2136 11.243 47.3959 12.2692 47.6638 13.6343L50.0838 13.1353C49.5874 10.624 47.4098 8.7294 44.7981 8.72705V8.72705Z" fill="white"/>
</svg>
