<svg width="53" height="24" viewBox="0 0 53 24" fill="none" xmlns="http://www.w3.org/2000/svg">
<path d="M14.9592 0.282715H9.52487C7.12359 0.396213 5.16079 1.36306 4.59405 3.35684C4.29853 4.39663 4.1359 5.53861 3.90482 6.61648C2.73006 12.0971 1.6884 17.7288 0.564697 23.1H42.8734C46.1443 23.1 48.3902 22.4091 48.997 19.8137C49.2789 18.6082 49.549 17.2428 49.8188 15.9183C50.8703 10.754 51.9228 5.58996 53 0.282715H14.9592Z" fill="#9E9E9E"/>
<path d="M14.5349 8.39203C14.7622 8.23552 15.055 7.52274 14.7205 7.22598C14.6146 7.13203 14.4375 7.10476 14.1903 7.14654C13.9611 7.18523 13.8292 7.26312 13.7397 7.38506C13.5958 7.58108 13.4637 8.17245 13.6867 8.39214C13.9039 8.60596 14.3903 8.49154 14.5349 8.39203V8.39203ZM11.3008 7.22598C11.138 8.28224 10.9546 9.31792 10.7706 10.3531C9.58971 10.3655 8.38397 10.4113 7.24493 10.3265C7.46006 9.31381 7.61435 8.24015 7.82814 7.22598H6.5557C6.10023 9.80937 5.68583 12.434 5.17725 14.9643H6.47624C6.67994 13.6665 6.87057 12.3552 7.13891 11.1216C8.24645 11.0944 9.57386 11.0468 10.6382 11.1482C10.4187 12.4306 10.1536 13.6671 9.94894 14.9643H11.2479C11.6654 12.3428 12.105 9.74362 12.6265 7.22598H11.3008V7.22598ZM29.6717 9.4521C28.661 9.044 27.8664 9.73364 27.498 10.3796C27.5816 10.0922 27.616 9.75566 27.6837 9.4521H26.6763C26.43 11.3614 26.0671 13.1539 25.722 14.9643H26.862C27.0218 13.8897 27.0907 12.4411 27.4451 11.4132C27.7284 10.5917 28.4697 9.8919 29.5394 10.2737C29.5542 9.97061 29.6409 9.7393 29.6717 9.4521V9.4521ZM30.3078 13.6658C30.2027 13.3944 30.1757 12.9464 30.2019 12.6057C30.2608 11.84 30.5399 10.9077 30.9707 10.4856C31.5651 9.90311 32.7387 9.99953 33.6747 10.3266C33.7036 10.0113 33.7671 9.72993 33.8073 9.42566C32.2722 9.17499 30.8155 9.33099 30.0431 10.1412C29.2869 10.9344 28.7913 12.7573 29.1416 13.9044C29.5517 15.2466 31.3907 15.3195 32.8795 14.8054C32.9454 14.5356 32.9802 14.2349 33.0385 13.9575C32.2248 14.3799 30.6694 14.5994 30.3078 13.6658V13.6658ZM43.1119 9.47855C42.1044 8.97496 41.2656 9.81997 40.9382 10.3265C41.0314 10.0666 41.0368 9.71851 41.1237 9.452H40.1164C39.8447 11.3447 39.5174 13.1817 39.1356 14.9642H40.3021C40.3094 14.2336 40.453 13.6932 40.567 12.9768C40.8107 11.4469 41.1687 9.76924 42.9531 10.2735C43.012 10.0149 43.0366 9.72139 43.1119 9.47855ZM13.3685 9.4521C13.3376 9.45653 13.3397 9.49398 13.342 9.53154C13.0908 11.4094 12.7508 13.1986 12.3877 14.9642H13.5276C13.8015 13.0738 14.1152 11.2233 14.5084 9.452L13.3685 9.4521V9.4521ZM23.389 9.34612C22.5653 9.40961 21.8691 9.64648 21.3743 10.1677C20.7674 10.8068 20.276 12.2199 20.42 13.5069C20.6255 15.3428 22.9121 15.2768 24.741 14.8319C24.7722 14.5096 24.8502 14.2341 24.9 13.9308C24.1467 14.2126 22.8385 14.606 22.0634 14.1164C21.4784 13.7465 21.475 12.8102 21.6658 11.9963C22.895 11.9572 24.1726 11.9646 25.4036 11.9963C25.4816 11.4194 25.7051 10.7905 25.5096 10.2208C25.2518 9.46857 24.3286 9.27368 23.389 9.34612ZM24.4758 11.3602H21.7983C21.8831 10.7448 22.4369 10.0685 23.3094 10.0351C24.1306 10.0037 24.7186 10.3365 24.4758 11.3602V11.3602ZM19.068 9.4521C18.1033 9.08979 16.9275 9.52228 16.4177 9.93367C16.4195 9.95178 16.4055 9.95425 16.3905 9.95559C16.3991 9.94828 16.4086 9.94098 16.4177 9.93367C16.4176 9.93215 16.4174 9.93064 16.4171 9.92915C16.4257 9.75226 16.488 9.62899 16.4966 9.4521H15.5158C15.107 12.1706 14.6223 14.8131 14.1109 17.4289H15.2507C15.4157 16.4102 15.5246 15.3354 15.7545 14.3813C16.0148 15.3848 17.7146 15.1931 18.4319 14.8053C19.9118 14.0052 21.0533 10.1975 19.068 9.4521V9.4521ZM18.1668 13.9308C17.5569 14.5765 16.0576 14.5668 15.94 13.4802C15.8888 13.0075 16.0649 12.5118 16.1522 12.0227C16.2402 11.5277 16.3037 11.0527 16.3906 10.6182C16.9913 9.8849 18.7565 9.7963 18.9356 11.0157C19.0909 12.0743 18.6718 13.396 18.1668 13.9308V13.9308ZM47.3533 7.067C47.2556 7.92333 47.125 8.74683 46.9558 9.53154C44.1596 8.64671 42.4449 10.7034 42.4758 13.2418C42.4818 13.7327 42.5663 14.2195 42.8733 14.5668C43.4028 15.1651 44.9181 15.3084 45.6834 14.8052C45.8314 14.7079 45.9828 14.5307 46.0809 14.4078C46.1547 14.3153 46.2718 14.073 46.2931 14.1428C46.2527 14.4117 46.1926 14.6609 46.1872 14.9642H47.221C47.4204 12.1069 48.0363 9.66644 48.4934 7.06689H47.3534V7.067H47.3533ZM44.8085 14.3547C44.0411 14.3712 43.6596 13.8964 43.642 13.1093C43.6114 11.7306 44.2163 10.1989 45.4447 10.0616C46.0166 9.99768 46.4307 10.1306 46.8497 10.2737C46.465 11.8223 46.6038 14.3163 44.8085 14.3547V14.3547ZM34.9735 9.4521C34.9174 9.76698 34.8313 10.0519 34.7615 10.3531C35.4341 10.1844 37.5287 9.66747 37.7305 10.5651C37.7975 10.8633 37.6819 11.1801 37.5979 11.4132C35.704 11.2338 34.1602 11.5484 33.7541 12.8972C33.4821 13.8006 33.7846 14.6897 34.3638 14.9379C35.4795 15.4157 36.8366 14.8683 37.3063 14.1164C37.2576 14.3767 37.2113 14.6398 37.227 14.9643H38.2077C38.2182 14.0253 38.3549 13.2651 38.4993 12.4201C38.6224 11.7006 38.8541 10.9882 38.8175 10.3531C38.7331 8.89861 36.3227 9.4131 34.9735 9.4521V9.4521ZM36.8292 13.9043C36.2417 14.4792 34.5928 14.6425 34.7615 13.2682C34.9015 12.1269 36.1447 11.8843 37.4917 12.0491C37.3917 12.6735 37.2768 13.4662 36.8292 13.9043V13.9043Z" fill="white"/>
</svg>
